<?xml version="1.0" encoding="utf-8"?>
<!-- Generator: Adobe Illustrator 27.0.0, SVG Export Plug-In . SVG Version: 6.00 Build 0)  -->
<svg version="1.1" xmlns="http://www.w3.org/2000/svg" xmlns:xlink="http://www.w3.org/1999/xlink" x="0px" y="0px"
	 viewBox="0 0 165 165" style="enable-background:new 0 0 165 165;" xml:space="preserve">
<style type="text/css">
	.st0{display:none;}
	.st1{display:inline;}
	.st2{fill:#808080;}
	.st3{fill:none;stroke:#000000;stroke-width:2;stroke-miterlimit:10;}
	.st4{fill:#FFFFFF;}
</style>
<g id="图层_1" class="st0">
	<g class="st1">
		<path class="st2" d="M22.71,60.14V46.19c1.12,0,1.91-0.33,2.38-0.98c0.43-0.55,0.84-2.6,1.22-6.15h11.86
			c-0.64,7.35-1.78,12.21-3.42,14.56C32.06,57.52,28.04,59.69,22.71,60.14z M22.78,146.35V133.6c1.98-0.15,3.33-0.9,4.06-2.25
			c0.69-1.3,1.03-3.33,1.03-6.08V81.75c0-5.05,0.99-9.03,2.96-11.93c3.05-4.3,6.98-6.45,11.79-6.45h35.13v-3.53
			c-4.73-0.75-8.31-3.23-10.76-7.43c-1.29-2.25-2.17-6.7-2.64-13.36h11.99c0,1.8,0.06,3.13,0.19,3.98c0.34,2,1.42,3.08,3.22,3.23
			v12.91h4.45V46.26c1.2-0.2,2.02-0.68,2.45-1.43c0.47-0.85,0.75-2.78,0.84-5.78l11.79,0.08c-0.3,5.5-0.77,9.18-1.42,11.03
			c-1.46,4.1-4.21,7-8.25,8.7v4.5h52.46v10.8h-33V81h24.17c2.41,0,4.32,0.73,5.74,2.18c2.06,2.1,3.09,4.48,3.09,7.13v9.9
			c0,2.65-0.8,5-2.38,7.05c-1.38,1.8-3.2,2.7-5.48,2.7h-25.14v5.93h32.16v10.65h-32.16v2.18c-0.04,0.85,0.09,1.63,0.39,2.33
			c0.6,1.4,1.55,2.1,2.84,2.1l28.94,0.08v12.75h-33.19c-2.92,0-5.46-1.4-7.61-4.2c-2.19-2.9-3.29-6.3-3.29-10.2v-21.61H59.19v5.93
			h31.26v10.65H59.19v2.33c0,2.9,1.14,4.35,3.42,4.35h27.84v12.75H58.48c-3.27,0-5.91-1.33-7.93-3.98
			c-2.23-2.95-3.35-6.6-3.35-10.96v-21.08h-7.67v13.43c0,6.85-1.59,12.35-4.77,16.51C31.93,143.6,27.93,145.75,22.78,146.35z
			 M22.97,36.28v-12h23.07v-5.7h11.92v5.7h23.01v12H57.97v22.58H46.04V36.28H22.97z M39.54,81h18.63v-6.83H46.24
			C42.63,74.17,40.39,76.45,39.54,81z M39.54,99.38h18.63v-7.8H39.54V99.38z M70.09,81h27.07v-6.83H70.09V81z M70.09,99.38h27.07
			v-7.8H70.09V99.38z M84.2,36.28v-12h23.14v-5.7h11.86v5.7h23.07v12H119.2v22.58h-11.86V36.28H84.2z M109.08,99.38h18.43
			c1.8,0,2.71-1.32,2.71-3.98c0-2.55-1.03-3.83-3.09-3.83h-18.05V99.38z M125.71,39.06h11.86c0.09,2.85,0.39,4.75,0.9,5.7
			c0.47,0.9,1.35,1.4,2.64,1.5v13.88c-6.02-0.35-10.27-2.9-12.76-7.65C126.98,49.99,126.1,45.51,125.71,39.06z"/>
	</g>
</g>
<g id="Logo">
	<rect x="130.08" y="81.15" width="12" height="27.04"/>
	<g>
		<polygon points="-79.98,-128.72 -137.99,-128.72 -136.94,-140.72 -78.93,-140.72 		"/>
		<polygon points="-104.97,-106.13 -116.89,-106.13 -113.36,-146.43 -101.44,-146.43 		"/>
		<polygon points="-124.97,-106.13 -136.89,-106.13 -135.11,-126.43 -123.19,-126.43 		"/>
		<polygon points="-84.97,-106.13 -96.89,-106.13 -95.11,-126.43 -83.19,-126.43 		"/>
		<polygon points="-18.74,-128.72 -76.74,-128.72 -75.69,-140.72 -17.69,-140.72 		"/>
		<polygon points="-43.72,-106.13 -55.65,-106.13 -52.12,-146.43 -40.2,-146.43 		"/>
		<polygon points="-63.72,-106.13 -75.65,-106.13 -73.87,-126.43 -61.95,-126.43 		"/>
		<polygon points="-23.72,-106.13 -35.65,-106.13 -33.87,-126.43 -21.95,-126.43 		"/>
		<polygon points="-140.54,-101.77 -21.24,-101.77 -22.19,-90.83 -141.49,-90.83 		"/>
		<polygon points="-142.09,-83.97 -22.79,-83.97 -23.75,-73.03 -143.05,-73.03 		"/>
		<polygon points="-143.65,-66.17 -24.35,-66.17 -25.31,-55.23 -144.61,-55.23 		"/>
		<polygon points="-135.77,-18.61 -147.77,-18.61 -140.5,-101.77 -128.5,-101.77 		"/>
		<polygon points="-97.14,-60.19 -109.14,-60.19 -105.5,-101.77 -93.5,-101.77 		"/>
		<polygon points="-112.77,-18.61 -124.77,-18.61 -120.7,-65.16 -108.7,-65.16 		"/>
		<polygon points="-61.57,-18.61 -73.57,-18.61 -66.3,-101.77 -54.3,-101.77 		"/>
		<polygon points="-25.17,-56.81 -37.17,-56.81 -34.8,-83.85 -22.8,-83.85 		"/>
		<polygon points="-78.4,-38.46 -116.35,-38.46 -115.43,-48.99 -77.48,-48.99 		"/>
		<polygon points="-80.14,-18.61 -118.08,-18.61 -116.89,-32.22 -78.95,-32.22 		"/>
		<polygon points="-27.6,-38.46 -60.72,-38.46 -59.8,-48.99 -26.68,-48.99 		"/>
		<polygon points="-29.34,-18.61 -62.46,-18.61 -61.27,-32.22 -28.15,-32.22 		"/>
	</g>
	<g>
		<path d="M181.05,147.85l-0.84,0.66v14.25l-1.31,0.66c0.06-0.94,0.09-1.56,0.09-1.88v-12.28c-0.94,1.56-1.88,2.84-2.81,3.84
			l-0.19-0.28c0.94-1.56,1.77-3.2,2.48-4.92c0.72-1.72,1.36-3.89,1.92-6.52l2.06,1.03l-0.84,0.47c-0.88,2.19-1.47,3.66-1.78,4.41
			L181.05,147.85z M182.18,157.97c0.19-0.25,0.31-0.59,0.38-1.03v-10.88c0-0.44-0.03-0.97-0.09-1.59l2.16,1.03l-0.84,0.56v4.41h1.03
			l0.84-0.84l1.41,1.41h-3.28v6l2.91-1.88l0.19,0.38c-1.94,1.69-3.13,2.97-3.56,3.84L182.18,157.97z M183.77,163.04
			c2-0.62,3.56-1.39,4.69-2.3s1.88-2.11,2.25-3.61s0.5-4.12,0.38-7.88l1.97,0.84l-0.66,0.66c0.06,3.19-0.09,5.5-0.47,6.94
			c-0.38,1.44-1.19,2.64-2.44,3.61c-1.25,0.97-3.13,1.67-5.62,2.11L183.77,163.04z M196.24,155.72c0,0.31,0.03,0.94,0.09,1.88
			l-1.31,0.66v-10.41h-6.09v9.94l-1.31,0.66c0.06-1.12,0.09-2.16,0.09-3.09v-5.62c0-1.19-0.03-2.25-0.09-3.19l1.31,0.75h1.59
			c0.25-1,0.47-2.03,0.66-3.09h-2.06c-0.81,0-1.56,0.09-2.25,0.28l-0.84-0.84h9.28l1.12-1.12l1.69,1.69h-5.34
			c-0.44,0.5-1,1.53-1.69,3.09h3.84l0.75-0.84l1.41,1.12l-0.84,0.56V155.72z M192.3,158.26c2.69,1.12,4.25,1.94,4.69,2.44
			c0.44,0.5,0.59,1.02,0.47,1.55c-0.13,0.53-0.28,0.8-0.47,0.8s-0.44-0.25-0.75-0.75c-0.63-0.88-2-2.12-4.12-3.75L192.3,158.26z"/>
		<path d="M206.83,143.72c-2.13,3.31-4.38,5.88-6.75,7.69l-0.19-0.28c2.87-3.12,5-6.44,6.38-9.94l1.88,1.22
			c-0.38,0.13-0.72,0.41-1.03,0.84c1.75,0.81,3.03,1.47,3.84,1.97c0.81,0.5,1.12,1.08,0.94,1.73s-0.38,0.98-0.56,0.98
			c-0.25,0-0.56-0.28-0.94-0.84C209.71,146.04,208.52,144.91,206.83,143.72z M203.36,154.79l1.97,1.12l-0.84,0.47
			c-1.25,2.44-2.59,4.41-4.03,5.91l-0.28-0.19C201.55,159.98,202.61,157.54,203.36,154.79z M203.27,160.97
			c0.94,0.12,1.66,0.2,2.16,0.23c0.5,0.03,0.75-0.23,0.75-0.8v-6.94h-2.16c-0.81,0-1.56,0.09-2.25,0.28l-0.84-0.84h5.25v-3.47h-0.09
			c-0.81,0-1.56,0.09-2.25,0.28l-0.84-0.84h5.53l1.03-1.03l1.59,1.59h-3.66v3.47h1.88l1.12-1.12l1.69,1.69h-4.69v7.5
			c0,1-0.66,1.75-1.97,2.25c0.06-0.75-0.69-1.38-2.25-1.88V160.97z M208.43,155.44l0.28-0.19c1.56,1.31,2.53,2.24,2.91,2.77
			c0.38,0.53,0.56,0.98,0.56,1.36s-0.11,0.74-0.33,1.08c-0.22,0.34-0.39,0.52-0.52,0.52c-0.25,0-0.5-0.44-0.75-1.31
			C210.21,158.48,209.49,157.07,208.43,155.44z M217.33,155.63l-4.59,0.84l-0.56,0.28l-0.94-0.66l6.09-1.03
			c0-4.81-0.03-9.38-0.09-13.69l2.16,1.03l-0.75,0.56v11.81l1.03-0.19l0.66-1.22l1.88,1.31l-3.56,0.66c0,3.5,0.03,5.94,0.09,7.31
			l-1.5,0.75C217.3,160.6,217.33,158.01,217.33,155.63z M212.36,149.44c1.94,1,2.97,1.73,3.09,2.2c0.12,0.47,0.06,0.84-0.19,1.12
			c-0.25,0.28-0.44,0.42-0.56,0.42c-0.25,0-0.47-0.25-0.66-0.75c-0.31-0.75-0.94-1.66-1.88-2.72L212.36,149.44z M212.64,143.91
			c1.37,0.63,2.23,1.09,2.58,1.41c0.34,0.31,0.52,0.63,0.52,0.94c0,0.25-0.09,0.55-0.28,0.89c-0.19,0.34-0.34,0.52-0.47,0.52
			c-0.19,0-0.41-0.28-0.66-0.84c-0.38-0.81-1-1.69-1.88-2.62L212.64,143.91z"/>
		<path d="M229.52,150.29c1.19,0,2.16,0.45,2.91,1.36c0.75,0.91,1.12,2.11,1.12,3.61c0,1.69-0.39,3.03-1.17,4.03
			c-0.78,1-1.98,1.5-3.61,1.5c-1.12,0-2.13-0.33-3-0.98c-0.88-0.66-1.31-1.45-1.31-2.39c0-0.38,0.11-0.7,0.33-0.98
			c0.22-0.28,0.52-0.42,0.89-0.42s0.62,0.13,0.75,0.38c0.12,0.25,0.19,0.47,0.19,0.66c0,0.38-0.09,0.66-0.28,0.84
			c-0.19,0.25-0.28,0.5-0.28,0.75c0,0.5,0.3,0.88,0.89,1.12c0.59,0.25,1.23,0.38,1.92,0.38c1,0,1.77-0.41,2.3-1.22
			c0.53-0.81,0.8-1.97,0.8-3.47c0-1.25-0.23-2.26-0.7-3.05c-0.47-0.78-1.17-1.17-2.11-1.17c-0.69,0-1.28,0.13-1.78,0.38
			c-0.5,0.25-0.97,0.78-1.41,1.59l-0.84-0.09l0.47-8.53h7.69l-0.28,1.41h-6.75l-0.38,6.19c0.62-0.87,1.23-1.41,1.83-1.59
			C228.28,150.38,228.89,150.29,229.52,150.29z"/>
		<path d="M242.69,148.37c-0.53,0.41-1.19,0.58-1.97,0.52c-0.78-0.06-1.41-0.34-1.88-0.84c-0.47-0.5-0.69-1.12-0.66-1.88
			c0.03-0.75,0.23-1.33,0.61-1.73c0.38-0.41,0.84-0.69,1.41-0.84c0.56-0.16,1.11-0.17,1.64-0.05c0.53,0.13,0.98,0.45,1.36,0.98
			c0.38,0.53,0.52,1.2,0.42,2.02C243.53,147.35,243.22,147.96,242.69,148.37z M239.6,144.76c-0.34,0.31-0.55,0.7-0.61,1.17
			c-0.06,0.47,0.03,0.92,0.28,1.36c0.25,0.44,0.7,0.7,1.36,0.8s1.19-0.05,1.59-0.42c0.41-0.38,0.61-0.89,0.61-1.55
			s-0.2-1.16-0.61-1.5c-0.41-0.34-0.86-0.48-1.36-0.42C240.36,144.26,239.94,144.44,239.6,144.76z"/>
	</g>
	<g>
		<rect x="22.97" y="24.28" width="58.01" height="12"/>
		<rect x="46.04" y="18.57" width="11.92" height="40.29"/>
		<rect x="26.04" y="38.57" width="11.92" height="20.29"/>
		<rect x="66.04" y="38.57" width="11.92" height="20.29"/>
		<rect x="84.21" y="24.28" width="58.01" height="12"/>
		<rect x="107.29" y="18.57" width="11.92" height="40.29"/>
		<rect x="87.29" y="38.57" width="11.92" height="20.29"/>
		<rect x="127.29" y="38.57" width="11.92" height="20.29"/>
		<rect x="22.78" y="63.23" width="119.3" height="10.95"/>
		<rect x="22.78" y="81.03" width="47.04" height="10.95"/>
		<rect x="99.21" y="81.03" width="42.87" height="10.95"/>
		<rect x="22.78" y="98.83" width="119.3" height="10.95"/>
		<rect x="22.82" y="63.23" width="12" height="83.16"/>
		<rect x="57.82" y="63.23" width="12" height="41.58"/>
		<rect x="45.82" y="99.84" width="12" height="46.55"/>
		<rect x="97.02" y="63.23" width="12" height="83.16"/>
		<rect x="52.51" y="116.01" width="37.95" height="10.53"/>
		<rect x="52.51" y="132.78" width="37.95" height="13.6"/>
		<rect x="108.14" y="116.01" width="33.12" height="10.53"/>
		<rect x="108.14" y="132.78" width="33.12" height="13.6"/>
		<circle cx="75.5" cy="94.5" r="2"/>
		<circle cx="91.5" cy="94.5" r="2"/>
		<g>
			<path d="M93.5,78.8c0-1.1-0.9-2-2-2h-16c-1.1,0-2,0.9-2,2v8.5c0,1.1,0.9,2,2,2h16c1.1,0,2-0.9,2-2V78.8z"/>
			<path class="st3" d="M93.5,78.8c0-1.1-0.9-2-2-2h-16c-1.1,0-2,0.9-2,2v8.5c0,1.1,0.9,2,2,2h16c1.1,0,2-0.9,2-2V78.8z"/>
		</g>
	</g>
	<g>
		<polygon class="st4" points="85.02,-128.72 27.01,-128.72 28.06,-140.72 86.07,-140.72 		"/>
		<polygon class="st4" points="60.03,-106.13 48.11,-106.13 51.64,-146.43 63.56,-146.43 		"/>
		<polygon class="st4" points="40.03,-106.13 28.11,-106.13 29.89,-126.43 41.81,-126.43 		"/>
		<polygon class="st4" points="80.03,-106.13 68.11,-106.13 69.89,-126.43 81.81,-126.43 		"/>
		<polygon class="st4" points="146.26,-128.72 88.26,-128.72 89.31,-140.72 147.31,-140.72 		"/>
		<polygon class="st4" points="121.28,-106.13 109.35,-106.13 112.88,-146.43 124.8,-146.43 		"/>
		<polygon class="st4" points="101.28,-106.13 89.35,-106.13 91.13,-126.43 103.05,-126.43 		"/>
		<polygon class="st4" points="141.28,-106.13 129.35,-106.13 131.13,-126.43 143.05,-126.43 		"/>
		<polygon class="st4" points="24.46,-101.77 143.76,-101.77 142.81,-90.83 23.51,-90.83 		"/>
		<polygon class="st4" points="22.91,-83.97 69.94,-83.97 68.99,-73.03 21.95,-73.03 		"/>
		<polygon class="st4" points="99.34,-83.97 142.21,-83.97 141.25,-73.03 98.38,-73.03 		"/>
		<polygon class="st4" points="21.35,-66.17 140.65,-66.17 139.69,-55.23 20.39,-55.23 		"/>
		<polygon class="st4" points="29.23,-18.61 17.23,-18.61 24.5,-101.77 36.5,-101.77 		"/>
		<polygon class="st4" points="67.86,-60.19 55.86,-60.19 59.5,-101.77 71.5,-101.77 		"/>
		<polygon class="st4" points="52.23,-18.61 40.23,-18.61 44.3,-65.16 56.3,-65.16 		"/>
		<polygon class="st4" points="103.43,-18.61 91.43,-18.61 98.7,-101.77 110.7,-101.77 		"/>
		<polygon class="st4" points="86.6,-38.46 48.65,-38.46 49.57,-48.99 87.52,-48.99 		"/>
		<polygon class="st4" points="84.86,-18.61 46.92,-18.61 48.11,-32.22 86.05,-32.22 		"/>
		<polygon class="st4" points="137.4,-38.46 104.28,-38.46 105.2,-48.99 138.32,-48.99 		"/>
		<polygon class="st4" points="135.66,-18.61 102.54,-18.61 103.73,-32.22 136.85,-32.22 		"/>
		
			<ellipse transform="matrix(0.7224 -0.6915 0.6915 0.7224 69.417 31.9085)" class="st4" cx="74.45" cy="-70.5" rx="2.09" ry="1.91"/>
		
			<ellipse transform="matrix(0.7224 -0.6915 0.6915 0.7224 73.8587 42.9723)" class="st4" cx="90.45" cy="-70.5" rx="2.09" ry="1.91"/>
		<g>
			<path class="st4" d="M93.82-86.21c0.1-1.1-0.73-1.99-1.83-1.99H76c-1.1,0-2.08,0.9-2.17,1.99l-0.74,8.52
				c-0.1,1.1,0.73,1.99,1.83,1.99h16c1.1,0,2.08-0.9,2.17-1.99L93.82-86.21z"/>
		</g>
	</g>
	<g>
		<path class="st4" d="M206.32-59.75c1.58-0.53,3.7-1.58,3.7-4.84v-14.26h-5.63c-0.97,9.06-3.26,18.83-8.36,26.14
			c-1.23-1.5-4.58-4.14-6.25-5.02c6.86-9.77,7.57-23.23,7.57-33v-16.28h31.33c-0.53-1.23-1.14-2.55-1.76-3.61l4.75-1.06
			c-1.06-1.23-2.38-2.46-3.61-3.34c4.75-1.58,10.21-4.66,14.26-8.01h-10.56v-5.9h14.43v-5.54h7.57v5.54h17.34v5.9h-13.82
			c4.49,3.52,10.65,6.86,15.58,8.8c-1.5,1.23-3.52,3.61-4.66,5.1c-4.4-2.11-9.94-5.81-14.43-9.59v9.5h-7.57v-9.5
			c-3.26,2.73-7.22,5.37-10.91,7.39c0.79,1.41,1.58,2.9,2.11,4.31h32.56v6.16h-24.11v5.37h21.12v16.63h-21.03v6.42
			c6.95-1.23,14.26-2.99,18.74-4.75l4.49,5.02c-6.42,2.38-15.4,4.14-23.23,5.19v4.49c0,2.29,0.62,2.73,4.22,2.73
			c1.67,0,9.86,0,12.06,0c2.9,0,3.43-1.14,3.78-7.3c1.58,0.97,4.4,1.94,6.42,2.38c-0.79,8.45-2.82,10.74-9.42,10.74
			c-1.85,0-11.88,0-13.64,0c-8.62,0-10.91-1.85-10.91-8.54v-16.37h-21.3v5.28h17.95v5.63h-17.95v6.78l18.57-1.85
			c0,1.76,0.26,4.31,0.44,5.63c-22.44,2.73-25.43,3.17-27.37,4.05C208.43-55.09,207.28-58.17,206.32-59.75z M215.29-134.46v5.54
			h14.26v5.9h-12.41c4.05,2.11,9.77,5.37,11.44,6.51l-4.4,4.84c-1.76-1.5-5.54-4.22-8.89-6.6v9.24h-7.48v-9.06
			c-3.87,3.61-8.8,7.04-13.02,9.33c-1.14-1.67-3.08-3.87-4.66-5.19c4.66-1.85,10.21-5.37,14.17-9.06h-12.14v-5.9h15.66v-5.54H215.29
			z M205-89.94l-0.18,5.54h13.11v-5.54H205z M205-100.85v5.37h12.94v-5.37H205z M225.41-95.48h13.02v-5.37h-13.02V-95.48z
			 M225.41-84.39h13.02v-5.54h-13.02V-84.39z M245.83-84.39h13.55v-5.54h-13.55V-84.39z"/>
		<path class="st4" d="M358.82-130.06v7.66h-64.33v17.6c0,14.52-1.23,35.99-9.24,50.16c-1.58-1.32-5.19-3.43-7.22-4.14
			c7.57-13.38,8.18-32.47,8.18-46.02v-25.26H358.82z M315.44-75.15c-4.4,6.51-10.47,14.08-15.31,18.83
			c-1.67-1.32-5.02-3.43-7.04-4.58c5.1-4.4,10.82-11.09,14.52-16.9L315.44-75.15z M331.01-120.56c-1.23,2.11-2.46,4.22-3.7,6.07
			h24.9v33.09h-21.56v19.98c0,4.05-0.7,6.16-3.7,7.39c-2.9,1.14-7.39,1.14-13.9,1.14c-0.35-2.2-1.5-5.19-2.46-7.3
			c4.58,0.09,9.06,0.09,10.29,0.09c1.41-0.09,1.76-0.44,1.76-1.5v-19.8h-21.12v-33.09h16.54c1.23-2.46,2.38-5.19,3.08-7.39
			L331.01-120.56z M309.63-101.02h34.06v-7.04h-34.06V-101.02z M309.63-87.82h34.06v-7.22h-34.06V-87.82z M343.33-77.79
			c5.1,5.46,12.06,13.11,15.66,17.69l-7.13,4.22c-3.17-4.75-10.03-12.67-15.14-18.39L343.33-77.79z"/>
		<path class="st4" d="M407.75-78.76c5.37-5.1,9.5-11.35,12.32-18.92l8.45,2.46c-3.61,8.71-8.45,15.84-14.52,21.74
			c8.89,6.25,20.15,10.56,33.79,12.67c-1.76,1.76-4.05,5.19-5.1,7.48c-14.34-2.64-25.87-7.57-35.02-14.78
			c-9.59,7.22-21.38,12.06-35.11,15.4c-0.88-1.94-3.43-5.63-5.02-7.48c13.55-2.73,24.99-6.95,33.97-13.38
			c-5.63-5.9-10.21-13.02-13.73-21.3l7.48-2.38C398.16-90.11,402.38-83.86,407.75-78.76z M398.77-109.56
			c-6.07,7.57-15.49,15.58-23.23,20.5c-1.58-1.67-4.75-4.84-6.6-6.16c7.83-4.22,16.54-11,21.74-17.51L398.77-109.56z M407.48-135.43
			c2.38,3.61,5.28,8.62,6.42,11.79l-2.29,0.88h34.14v8.1h-76.73v-8.1h35.73c-1.23-3.08-3.26-6.86-5.19-9.94L407.48-135.43z
			 M423.59-112.99c7.83,5.28,17.86,13.29,22.7,18.83l-7.04,5.46c-4.4-5.54-14.26-13.9-22.26-19.54L423.59-112.99z"/>
		<path class="st4" d="M474.72-69.96c1.58,0.97,3.34,2.38,5.98,4.05c5.81,3.52,13.46,4.05,23.23,4.05c9.94,0,23.94-0.7,33-1.76
			c-0.88,2.11-2.11,5.81-2.2,8.01c-6.42,0.44-21.56,0.88-31.06,0.88c-10.91,0-18.13-0.97-24.29-4.66c-3.61-2.02-6.51-4.93-8.45-4.93
			c-2.99,0-7.22,5.19-11.44,10.82l-5.1-6.95c4.22-4.4,8.54-8.01,12.32-9.68v-23.32h-11.88v-7.74h19.89V-69.96z M462.13-131.12
			c5.19,4.22,12.23,10.38,15.58,14.34l-6.07,5.63c-3.17-4.05-9.94-10.47-15.14-15.05L462.13-131.12z M525.75-131.47l1.67-0.44
			l5.02,4.05c-4.58,4.4-10.82,8.89-17.07,12.5c2.11,0.97,4.05,2.02,5.63,2.9l-0.09,0.09h11.7v37.93c0,3.7-0.7,5.54-3.26,6.69
			s-6.34,1.23-11.97,1.23c-0.35-2.11-1.23-4.84-2.2-6.69c3.61,0.09,7.04,0.09,8.01,0.09c1.14-0.09,1.41-0.44,1.41-1.5v-6.16h-13.2
			v13.64h-7.48v-13.64h-12.76v13.99h-7.83v-45.58h22.53c-4.93-2.38-10.47-4.75-15.22-6.6l5.28-4.58c3.78,1.32,8.18,3.08,12.41,4.93
			c3.43-1.76,6.95-4.05,9.94-6.34h-34.58v-6.51H525.75z M503.93-99.7v-6.51h-12.76v6.51H503.93z M491.17-87.03h12.76v-6.69h-12.76
			V-87.03z M511.41-106.21v6.51h13.2v-6.51H511.41z M511.41-93.72v6.69h13.2v-6.69H511.41z"/>
		<path class="st4" d="M560.69-134.46v20.68h8.98v7.74h-8.98v53.15h-8.01v-53.15h-9.33v-7.74h9.33v-20.68H560.69z M594.75-133.85
			v15.93h18.48c0,0-0.09,2.9-0.09,3.96l-0.35,13.46l6.6-1.32c2.46,8.18,5.19,18.83,6.16,25.17l-7.39,1.85
			c-0.79-6.16-3.08-16.54-5.37-24.73c-0.79,27.72-1.67,38.02-4.31,41.53c-1.85,2.82-3.87,3.61-6.78,4.05
			c-2.82,0.35-7.48,0.26-12.14,0.09c-0.18-2.38-1.06-5.81-2.46-8.01c4.75,0.35,9.06,0.44,10.91,0.44c1.58,0,2.46-0.26,3.34-1.41
			c2.11-2.64,2.99-14.78,3.7-46.99h-10.38c-0.62,18.39-4.4,40.48-24.29,57.11c-1.32-1.76-4.31-4.49-6.33-5.63
			c18.48-15.14,22.09-34.94,22.7-51.48h-14.52v-8.1h14.61v-15.93H594.75z M579.88-100.58c-1.85,9.24-5.19,18.48-9.24,24.46
			c-1.32-1.14-4.49-3.26-6.25-4.22c3.78-5.37,6.6-13.55,8.1-21.65L579.88-100.58z"/>
		<path class="st4" d="M679.32-131.21l-2.9,3.78c8.36,7.83,22.62,16.72,36.34,21.3c-1.85,1.67-4.58,5.02-5.9,7.3
			c-4.84-1.94-9.68-4.49-14.34-7.3v6.34H650.8v-5.63c-4.49,2.82-9.24,5.37-14.17,7.57c-1.23-2.11-4.05-5.72-5.98-7.39
			c16.98-6.86,32.74-17.86,40.92-29.39L679.32-131.21z M638.57-63.1c2.02-0.35,4.05-1.94,6.78-4.49c2.29-1.94,8.1-7.83,13.38-14.78
			h-23.5v-8.18h73.04v8.18h-38.01c-4.84,6.25-10.47,12.41-16.28,17.69l36.17-2.46c-2.9-3.34-6.07-6.69-9.15-9.5l7.13-3.7
			c7.83,6.95,16.02,16.28,19.98,22.97l-7.48,4.49c-1.14-2.02-2.73-4.49-4.66-7.04c-45.32,3.61-50.69,3.87-54.56,5.37
			C640.86-56.41,639.54-60.72,638.57-63.1z M690.23-107.53c-7.13-4.58-13.64-9.68-18.57-14.52c-5.1,5.37-11,10.21-17.51,14.52
			H690.23z"/>
		<path class="st4" d="M189.81-45.88h2.78v15.31h7.49v2.38h-10.27V-45.88z"/>
		<path class="st4" d="M202.51-33.09v-8.33h2.78v7.99c0,2.26,0.67,3.17,2.21,3.17c1.22,0,2.09-0.58,3.17-1.97v-9.19h2.78v13.23
			h-2.28l-0.22-1.99h-0.07c-1.2,1.39-2.5,2.33-4.3,2.33C203.76-27.86,202.51-29.73,202.51-33.09z"/>
		<path class="st4" d="M216.53-22.94l0.53-2.16c0.24,0.07,0.62,0.19,0.98,0.19c1.42,0,2.26-1.06,2.74-2.47l0.29-0.91l-5.23-13.13
			h2.81l2.42,6.82c0.41,1.18,0.82,2.47,1.22,3.72h0.12c0.34-1.22,0.7-2.52,1.03-3.72l2.14-6.82h2.66l-4.85,14.02
			c-1.03,2.83-2.42,4.73-5.18,4.73C217.51-22.67,216.98-22.77,216.53-22.94z"/>
		<path class="st4" d="M230.44-33.09v-8.33h2.78v7.99c0,2.26,0.67,3.17,2.21,3.17c1.22,0,2.09-0.58,3.17-1.97v-9.19h2.78v13.23
			h-2.28l-0.22-1.99h-0.07c-1.2,1.39-2.5,2.33-4.3,2.33C231.69-27.86,230.44-29.73,230.44-33.09z"/>
		<path class="st4" d="M244.75-31.7c0-2.86,2.4-4.32,7.9-4.92c-0.02-1.51-0.58-2.86-2.52-2.86c-1.39,0-2.69,0.62-3.82,1.34
			L245.28-40c1.37-0.86,3.22-1.73,5.33-1.73c3.29,0,4.8,2.06,4.8,5.59v7.94h-2.26l-0.22-1.51h-0.1c-1.2,1.03-2.62,1.85-4.2,1.85
			C246.36-27.86,244.75-29.37,244.75-31.7z M252.65-31.62v-3.22c-3.91,0.46-5.23,1.46-5.23,2.93c0,1.32,0.89,1.85,2.06,1.85
			C250.63-30.06,251.57-30.62,252.65-31.62z"/>
		<path class="st4" d="M259.32-41.42h2.26l0.24,1.85h0.05c1.2-1.2,2.57-2.16,4.37-2.16c2.81,0,4.06,1.87,4.06,5.23v8.3h-2.76v-7.97
			c0-2.28-0.67-3.17-2.23-3.17c-1.22,0-2.04,0.6-3.22,1.78v9.36h-2.76V-41.42z"/>
		<path class="st4" d="M283.51-43.53h-5.16v-2.35h13.18v2.35h-5.18v15.34h-2.83V-43.53z"/>
		<path class="st4" d="M293.13-41.42h2.26l0.24,2.38h0.05c0.94-1.68,2.33-2.69,3.77-2.69c0.65,0,1.06,0.1,1.46,0.26l-0.48,2.42
			c-0.48-0.14-0.79-0.22-1.34-0.22c-1.08,0-2.38,0.74-3.19,2.86v8.21h-2.76V-41.42z"/>
		<path class="st4" d="M301.51-31.7c0-2.86,2.4-4.32,7.9-4.92c-0.02-1.51-0.58-2.86-2.52-2.86c-1.39,0-2.69,0.62-3.82,1.34
			L302.04-40c1.37-0.86,3.22-1.73,5.33-1.73c3.29,0,4.8,2.06,4.8,5.59v7.94h-2.26l-0.22-1.51h-0.1c-1.2,1.03-2.62,1.85-4.2,1.85
			C303.12-27.86,301.51-29.37,301.51-31.7z M309.4-31.62v-3.22c-3.91,0.46-5.23,1.46-5.23,2.93c0,1.32,0.89,1.85,2.06,1.85
			C307.39-30.06,308.32-30.62,309.4-31.62z"/>
		<path class="st4" d="M316.08-41.42h2.26l0.24,1.85h0.05c1.2-1.2,2.57-2.16,4.37-2.16c2.81,0,4.06,1.87,4.06,5.23v8.3h-2.76v-7.97
			c0-2.28-0.67-3.17-2.23-3.17c-1.22,0-2.04,0.6-3.22,1.78v9.36h-2.76V-41.42z"/>
		<path class="st4" d="M329.66-29.7l1.32-1.8c1.15,0.94,2.3,1.54,3.72,1.54c1.56,0,2.3-0.77,2.3-1.78c0-1.2-1.46-1.73-2.9-2.28
			c-1.75-0.67-3.7-1.61-3.7-3.84c0-2.21,1.78-3.86,4.7-3.86c1.75,0,3.24,0.72,4.27,1.56l-1.27,1.7c-0.94-0.67-1.87-1.15-2.93-1.15
			c-1.49,0-2.16,0.72-2.16,1.63c0,1.1,1.3,1.54,2.76,2.09c1.82,0.7,3.86,1.51,3.86,3.98c0,2.23-1.75,4.06-5.02,4.06
			C332.8-27.86,330.93-28.65,329.66-29.7z"/>
		<path class="st4" d="M342.57-41.42h2.26l0.24,1.46h0.05c1.15-0.96,2.59-1.78,4.08-1.78c3.34,0,5.21,2.64,5.21,6.72
			c0,4.54-2.71,7.15-5.69,7.15c-1.15,0-2.35-0.55-3.46-1.51l0.07,2.26v4.27h-2.76V-41.42z M351.55-34.96c0-2.76-0.89-4.46-3.1-4.46
			c-1.03,0-2.02,0.55-3.12,1.61v6.46c1.03,0.86,2.06,1.18,2.86,1.18C350.11-30.18,351.55-31.89,351.55-34.96z"/>
		<path class="st4" d="M356.76-34.79c0-4.39,2.95-6.94,6.24-6.94c3.26,0,6.19,2.54,6.19,6.94s-2.93,6.94-6.19,6.94
			C359.71-27.86,356.76-30.4,356.76-34.79z M366.36-34.79c0-2.78-1.3-4.66-3.36-4.66c-2.09,0-3.38,1.87-3.38,4.66
			c0,2.81,1.3,4.63,3.38,4.63C365.06-30.16,366.36-31.98,366.36-34.79z"/>
		<path class="st4" d="M372.45-41.42h2.26l0.24,2.38H375c0.94-1.68,2.33-2.69,3.77-2.69c0.65,0,1.06,0.1,1.46,0.26l-0.48,2.42
			c-0.48-0.14-0.79-0.22-1.34-0.22c-1.08,0-2.38,0.74-3.19,2.86v8.21h-2.76V-41.42z"/>
		<path class="st4" d="M382.7-32.51v-6.67h-1.92v-2.06l2.06-0.17l0.31-3.65h2.3v3.65h3.43v2.23h-3.43v6.7c0,1.58,0.55,2.4,1.94,2.4
			c0.43,0,1.01-0.17,1.39-0.31l0.5,2.04c-0.72,0.24-1.63,0.5-2.59,0.5C383.75-27.86,382.7-29.73,382.7-32.51z"/>
		<path class="st4" d="M390.43-31.7c0-2.86,2.4-4.32,7.9-4.92c-0.02-1.51-0.58-2.86-2.52-2.86c-1.39,0-2.69,0.62-3.82,1.34
			L390.95-40c1.37-0.86,3.22-1.73,5.33-1.73c3.29,0,4.8,2.06,4.8,5.59v7.94h-2.26l-0.22-1.51h-0.1c-1.2,1.03-2.62,1.85-4.2,1.85
			C392.04-27.86,390.43-29.37,390.43-31.7z M398.32-31.62v-3.22c-3.91,0.46-5.23,1.46-5.23,2.93c0,1.32,0.89,1.85,2.06,1.85
			C396.31-30.06,397.24-30.62,398.32-31.62z"/>
		<path class="st4" d="M405.02-32.51v-6.67h-1.92v-2.06l2.06-0.17l0.31-3.65h2.3v3.65h3.43v2.23h-3.43v6.7c0,1.58,0.55,2.4,1.94,2.4
			c0.43,0,1.01-0.17,1.39-0.31l0.5,2.04c-0.72,0.24-1.63,0.5-2.59,0.5C406.07-27.86,405.02-29.73,405.02-32.51z"/>
		<path class="st4" d="M413.75-45.55c0-0.96,0.7-1.63,1.73-1.63c1.01,0,1.7,0.67,1.7,1.63c0,1.03-0.7,1.68-1.7,1.68
			C414.45-43.87,413.75-44.51,413.75-45.55z M414.09-41.42h2.76v13.23h-2.76V-41.42z"/>
		<path class="st4" d="M420.07-34.79c0-4.39,2.95-6.94,6.24-6.94c3.26,0,6.19,2.54,6.19,6.94s-2.93,6.94-6.19,6.94
			C423.02-27.86,420.07-30.4,420.07-34.79z M429.67-34.79c0-2.78-1.3-4.66-3.36-4.66c-2.09,0-3.38,1.87-3.38,4.66
			c0,2.81,1.3,4.63,3.38,4.63C428.37-30.16,429.67-31.98,429.67-34.79z"/>
		<path class="st4" d="M435.76-41.42h2.26l0.24,1.85h0.05c1.2-1.2,2.57-2.16,4.37-2.16c2.81,0,4.06,1.87,4.06,5.23v8.3h-2.76v-7.97
			c0-2.28-0.67-3.17-2.23-3.17c-1.22,0-2.04,0.6-3.22,1.78v9.36h-2.76V-41.42z"/>
		<path class="st4" d="M459.91-45.88h3.22l5.86,17.69h-2.95l-1.49-5.02h-6.14l-1.49,5.02h-2.86L459.91-45.88z M463.87-35.42
			l-0.7-2.38c-0.58-1.92-1.1-3.89-1.66-5.88h-0.1c-0.53,2.02-1.08,3.96-1.66,5.88l-0.7,2.38H463.87z"/>
		<path class="st4" d="M470.23-29.7l1.32-1.8c1.15,0.94,2.3,1.54,3.72,1.54c1.56,0,2.3-0.77,2.3-1.78c0-1.2-1.46-1.73-2.9-2.28
			c-1.75-0.67-3.7-1.61-3.7-3.84c0-2.21,1.78-3.86,4.7-3.86c1.75,0,3.24,0.72,4.27,1.56l-1.27,1.7c-0.94-0.67-1.87-1.15-2.93-1.15
			c-1.49,0-2.16,0.72-2.16,1.63c0,1.1,1.3,1.54,2.76,2.09c1.82,0.7,3.86,1.51,3.86,3.98c0,2.23-1.75,4.06-5.02,4.06
			C473.37-27.86,471.5-28.65,470.23-29.7z"/>
		<path class="st4" d="M481.75-29.7l1.32-1.8c1.15,0.94,2.3,1.54,3.72,1.54c1.56,0,2.3-0.77,2.3-1.78c0-1.2-1.46-1.73-2.9-2.28
			c-1.75-0.67-3.7-1.61-3.7-3.84c0-2.21,1.78-3.86,4.7-3.86c1.75,0,3.24,0.72,4.27,1.56l-1.27,1.7c-0.94-0.67-1.87-1.15-2.93-1.15
			c-1.49,0-2.16,0.72-2.16,1.63c0,1.1,1.3,1.54,2.76,2.09c1.82,0.7,3.86,1.51,3.86,3.98c0,2.23-1.75,4.06-5.02,4.06
			C484.89-27.86,483.02-28.65,481.75-29.7z"/>
		<path class="st4" d="M493.72-34.79c0-4.39,2.95-6.94,6.24-6.94c3.26,0,6.19,2.54,6.19,6.94s-2.93,6.94-6.19,6.94
			C496.67-27.86,493.72-30.4,493.72-34.79z M503.32-34.79c0-2.78-1.3-4.66-3.36-4.66c-2.09,0-3.38,1.87-3.38,4.66
			c0,2.81,1.3,4.63,3.38,4.63C502.03-30.16,503.32-31.98,503.32-34.79z"/>
		<path class="st4" d="M508.48-34.79c0-4.39,3.05-6.94,6.53-6.94c1.68,0,2.9,0.67,3.86,1.51l-1.37,1.8
			c-0.72-0.62-1.46-1.03-2.35-1.03c-2.23,0-3.82,1.87-3.82,4.66c0,2.81,1.54,4.63,3.72,4.63c1.1,0,2.09-0.5,2.88-1.2l1.15,1.85
			c-1.22,1.08-2.78,1.66-4.3,1.66C511.22-27.86,508.48-30.4,508.48-34.79z"/>
		<path class="st4" d="M521.49-45.55c0-0.96,0.7-1.63,1.73-1.63c1.01,0,1.7,0.67,1.7,1.63c0,1.03-0.7,1.68-1.7,1.68
			C522.18-43.87,521.49-44.51,521.49-45.55z M521.82-41.42h2.76v13.23h-2.76V-41.42z"/>
		<path class="st4" d="M527.97-31.7c0-2.86,2.4-4.32,7.9-4.92c-0.02-1.51-0.58-2.86-2.52-2.86c-1.39,0-2.69,0.62-3.82,1.34L528.5-40
			c1.37-0.86,3.22-1.73,5.33-1.73c3.29,0,4.8,2.06,4.8,5.59v7.94h-2.26l-0.22-1.51h-0.1c-1.2,1.03-2.62,1.85-4.2,1.85
			C529.58-27.86,527.97-29.37,527.97-31.7z M535.87-31.62v-3.22c-3.91,0.46-5.23,1.46-5.23,2.93c0,1.32,0.89,1.85,2.06,1.85
			C533.85-30.06,534.79-30.62,535.87-31.62z"/>
		<path class="st4" d="M542.56-32.51v-6.67h-1.92v-2.06l2.06-0.17l0.31-3.65h2.3v3.65h3.43v2.23h-3.43v6.7c0,1.58,0.55,2.4,1.94,2.4
			c0.43,0,1.01-0.17,1.39-0.31l0.5,2.04c-0.72,0.24-1.63,0.5-2.59,0.5C543.62-27.86,542.56-29.73,542.56-32.51z"/>
		<path class="st4" d="M551.3-45.55c0-0.96,0.7-1.63,1.73-1.63c1.01,0,1.7,0.67,1.7,1.63c0,1.03-0.7,1.68-1.7,1.68
			C551.99-43.87,551.3-44.51,551.3-45.55z M551.63-41.42h2.76v13.23h-2.76V-41.42z"/>
		<path class="st4" d="M557.61-34.79c0-4.39,2.95-6.94,6.24-6.94c3.26,0,6.19,2.54,6.19,6.94s-2.93,6.94-6.19,6.94
			C560.56-27.86,557.61-30.4,557.61-34.79z M567.21-34.79c0-2.78-1.3-4.66-3.36-4.66c-2.09,0-3.38,1.87-3.38,4.66
			c0,2.81,1.3,4.63,3.38,4.63C565.91-30.16,567.21-31.98,567.21-34.79z"/>
		<path class="st4" d="M573.3-41.42h2.26l0.24,1.85h0.05c1.2-1.2,2.57-2.16,4.37-2.16c2.81,0,4.06,1.87,4.06,5.23v8.3h-2.76v-7.97
			c0-2.28-0.67-3.17-2.23-3.17c-1.22,0-2.04,0.6-3.22,1.78v9.36h-2.76V-41.42z"/>
		<path class="st4" d="M598.55-47.37h1.9l-6.62,23.5h-1.94L598.55-47.37z"/>
		<path class="st4" d="M611.49-28.07c0.43-0.14,1.01-0.43,1.01-1.32v-3.89h-1.54c-0.26,2.47-0.89,5.14-2.28,7.13
			c-0.34-0.41-1.25-1.13-1.7-1.37c1.87-2.66,2.06-6.34,2.06-9v-4.44h8.54c-0.14-0.34-0.31-0.7-0.48-0.98l1.3-0.29
			c-0.29-0.34-0.65-0.67-0.98-0.91c1.3-0.43,2.78-1.27,3.89-2.18h-2.88v-1.61h3.94v-1.51h2.06v1.51h4.73v1.61h-3.77
			c1.22,0.96,2.9,1.87,4.25,2.4c-0.41,0.34-0.96,0.98-1.27,1.39c-1.2-0.58-2.71-1.58-3.94-2.62v2.59h-2.06v-2.59
			c-0.89,0.74-1.97,1.46-2.98,2.02c0.22,0.38,0.43,0.79,0.58,1.18h8.88v1.68h-6.58v1.46h5.76v4.54h-5.74v1.75
			c1.9-0.34,3.89-0.82,5.11-1.3l1.22,1.37c-1.75,0.65-4.2,1.13-6.34,1.42v1.22c0,0.62,0.17,0.74,1.15,0.74c0.46,0,2.69,0,3.29,0
			c0.79,0,0.94-0.31,1.03-1.99c0.43,0.26,1.2,0.53,1.75,0.65c-0.22,2.3-0.77,2.93-2.57,2.93c-0.5,0-3.24,0-3.72,0
			c-2.35,0-2.98-0.5-2.98-2.33v-4.46h-5.81v1.44h4.9v1.54h-4.9v1.85l5.06-0.5c0,0.48,0.07,1.18,0.12,1.54
			c-6.12,0.74-6.94,0.86-7.46,1.1C612.06-26.8,611.75-27.64,611.49-28.07z M613.94-48.45v1.51h3.89v1.61h-3.38
			c1.1,0.58,2.66,1.46,3.12,1.78l-1.2,1.32c-0.48-0.41-1.51-1.15-2.42-1.8v2.52h-2.04v-2.47c-1.06,0.98-2.4,1.92-3.55,2.54
			c-0.31-0.46-0.84-1.06-1.27-1.42c1.27-0.5,2.78-1.46,3.86-2.47h-3.31v-1.61h4.27v-1.51H613.94z M611.13-36.3l-0.05,1.51h3.58
			v-1.51H611.13z M611.13-39.28v1.46h3.53v-1.46H611.13z M616.7-37.82h3.55v-1.46h-3.55V-37.82z M616.7-34.79h3.55v-1.51h-3.55
			V-34.79z M622.26-34.79h3.7v-1.51h-3.7V-34.79z"/>
		<path class="st4" d="M653.08-47.25v2.09h-17.54v4.8c0,3.96-0.34,9.82-2.52,13.68c-0.43-0.36-1.42-0.94-1.97-1.13
			c2.06-3.65,2.23-8.86,2.23-12.55v-6.89H653.08z M641.25-32.27c-1.2,1.78-2.86,3.84-4.18,5.14c-0.46-0.36-1.37-0.94-1.92-1.25
			c1.39-1.2,2.95-3.02,3.96-4.61L641.25-32.27z M645.5-44.66c-0.34,0.58-0.67,1.15-1.01,1.66h6.79v9.02h-5.88v5.45
			c0,1.1-0.19,1.68-1.01,2.02c-0.79,0.31-2.02,0.31-3.79,0.31c-0.1-0.6-0.41-1.42-0.67-1.99c1.25,0.02,2.47,0.02,2.81,0.02
			c0.38-0.02,0.48-0.12,0.48-0.41v-5.4h-5.76V-43h4.51c0.34-0.67,0.65-1.42,0.84-2.02L645.5-44.66z M639.66-39.33h9.29v-1.92h-9.29
			V-39.33z M639.66-35.73h9.29v-1.97h-9.29V-35.73z M648.86-32.99c1.39,1.49,3.29,3.58,4.27,4.82l-1.94,1.15
			c-0.86-1.3-2.74-3.46-4.13-5.02L648.86-32.99z"/>
		<path class="st4" d="M666.42-33.26c1.46-1.39,2.59-3.1,3.36-5.16l2.3,0.67c-0.98,2.38-2.3,4.32-3.96,5.93
			c2.42,1.7,5.5,2.88,9.22,3.46c-0.48,0.48-1.1,1.42-1.39,2.04c-3.91-0.72-7.06-2.06-9.55-4.03c-2.62,1.97-5.83,3.29-9.58,4.2
			c-0.24-0.53-0.94-1.54-1.37-2.04c3.7-0.74,6.82-1.9,9.26-3.65c-1.54-1.61-2.78-3.55-3.74-5.81l2.04-0.65
			C663.81-36.35,664.96-34.65,666.42-33.26z M663.98-41.66c-1.66,2.06-4.22,4.25-6.34,5.59c-0.43-0.46-1.3-1.32-1.8-1.68
			c2.14-1.15,4.51-3,5.93-4.78L663.98-41.66z M666.35-48.71c0.65,0.98,1.44,2.35,1.75,3.22l-0.62,0.24h9.31v2.21h-20.93v-2.21h9.75
			c-0.34-0.84-0.89-1.87-1.42-2.71L666.35-48.71z M670.74-42.59c2.14,1.44,4.87,3.62,6.19,5.14l-1.92,1.49
			c-1.2-1.51-3.89-3.79-6.07-5.33L670.74-42.59z"/>
		<path class="st4" d="M684.69-30.86c0.43,0.26,0.91,0.65,1.63,1.1c1.58,0.96,3.67,1.1,6.34,1.1c2.71,0,6.53-0.19,9-0.48
			c-0.24,0.58-0.58,1.58-0.6,2.18c-1.75,0.12-5.88,0.24-8.47,0.24c-2.98,0-4.94-0.26-6.62-1.27c-0.98-0.55-1.78-1.34-2.3-1.34
			c-0.82,0-1.97,1.42-3.12,2.95l-1.39-1.9c1.15-1.2,2.33-2.18,3.36-2.64v-6.36h-3.24v-2.11h5.42V-30.86z M681.25-47.54
			c1.42,1.15,3.34,2.83,4.25,3.91l-1.66,1.54c-0.86-1.1-2.71-2.86-4.13-4.1L681.25-47.54z M698.61-47.63l0.46-0.12l1.37,1.1
			c-1.25,1.2-2.95,2.42-4.66,3.41c0.58,0.26,1.1,0.55,1.54,0.79l-0.02,0.02h3.19v10.35c0,1.01-0.19,1.51-0.89,1.82
			c-0.7,0.31-1.73,0.34-3.26,0.34c-0.1-0.58-0.34-1.32-0.6-1.82c0.98,0.02,1.92,0.02,2.18,0.02c0.31-0.02,0.38-0.12,0.38-0.41v-1.68
			h-3.6v3.72h-2.04v-3.72h-3.48v3.82h-2.14v-12.43h6.14c-1.34-0.65-2.86-1.3-4.15-1.8l1.44-1.25c1.03,0.36,2.23,0.84,3.38,1.34
			c0.94-0.48,1.9-1.1,2.71-1.73h-9.43v-1.78H698.61z M692.66-38.97v-1.78h-3.48v1.78H692.66z M689.18-35.51h3.48v-1.82h-3.48V-35.51
			z M694.7-40.75v1.78h3.6v-1.78H694.7z M694.7-37.34v1.82h3.6v-1.82H694.7z"/>
		<path class="st4" d="M708.21-48.45v6.22h2.66v2.06h-2.66v13.99h-2.18v-13.99h-2.81v-2.06h2.81v-6.22H708.21z M713.85-38.25
			l-0.1,2.38h3.29c0,0,0,0.55-0.02,0.79c-0.14,5.47-0.34,7.49-0.82,8.14c-0.36,0.48-0.72,0.65-1.25,0.7
			c-0.43,0.07-1.13,0.1-1.87,0.07c-0.02-0.55-0.19-1.32-0.46-1.8c0.62,0.07,1.13,0.07,1.42,0.07c0.24,0,0.41-0.05,0.55-0.26
			c0.29-0.36,0.43-1.9,0.55-5.95h-1.56c-0.38,3.38-1.32,6.1-3.43,8.02c-0.26-0.46-0.82-1.1-1.25-1.42c1.75-1.54,2.47-3.79,2.78-6.6
			h-2.09v-1.75h2.23l0.07-2.38H713.85z M718.74-48.45c-0.07,0.89-0.17,1.73-0.31,2.5h5.91c0,0-0.05,0.58-0.07,0.84
			c-0.29,3.53-0.6,5.02-1.2,5.64c-0.43,0.46-0.89,0.6-1.56,0.65c-0.55,0.07-1.54,0.07-2.59,0.02c-0.05-0.6-0.26-1.39-0.6-1.92
			c0.98,0.1,1.9,0.12,2.28,0.12c0.36,0,0.58-0.02,0.77-0.22c0.29-0.31,0.55-1.22,0.74-3.29h-4.13c-0.86,2.59-2.54,4.49-5.95,5.78
			c-0.22-0.46-0.74-1.2-1.15-1.58c2.78-0.94,4.2-2.33,4.94-4.2h-3.94v-1.85h4.46c0.12-0.77,0.22-1.61,0.26-2.5H718.74z
			 M721.82-38.32c-0.02,0.84-0.05,1.66-0.12,2.45h3.48c0,0,0,0.55,0,0.82c-0.17,5.42-0.34,7.44-0.84,8.11
			c-0.36,0.46-0.72,0.62-1.27,0.7c-0.46,0.07-1.2,0.1-1.99,0.07c-0.05-0.58-0.22-1.34-0.48-1.85c0.67,0.07,1.22,0.07,1.51,0.07
			s0.43-0.05,0.6-0.26c0.26-0.36,0.41-1.85,0.53-5.9h-1.7c-0.41,3.38-1.37,6.05-3.58,7.92c-0.24-0.46-0.82-1.13-1.27-1.44
			c1.82-1.49,2.59-3.7,2.9-6.48h-1.97v-1.75h2.11l0.1-2.45H721.82z"/>
		<path class="st4" d="M740.49-47.56l-0.79,1.03c2.28,2.14,6.17,4.56,9.91,5.81c-0.5,0.46-1.25,1.37-1.61,1.99
			c-1.32-0.53-2.64-1.22-3.91-1.99v1.73h-11.38v-1.54c-1.22,0.77-2.52,1.46-3.86,2.06c-0.34-0.58-1.1-1.56-1.63-2.02
			c4.63-1.87,8.93-4.87,11.16-8.02L740.49-47.56z M729.38-28.98c0.55-0.1,1.1-0.53,1.85-1.22c0.62-0.53,2.21-2.14,3.65-4.03h-6.41
			v-2.23h19.92v2.23h-10.37c-1.32,1.7-2.86,3.38-4.44,4.82l9.87-0.67c-0.79-0.91-1.66-1.82-2.5-2.59l1.94-1.01
			c2.14,1.9,4.37,4.44,5.45,6.26l-2.04,1.22c-0.31-0.55-0.74-1.22-1.27-1.92c-12.36,0.98-13.83,1.06-14.88,1.46
			C730-27.16,729.64-28.34,729.38-28.98z M743.46-41.1c-1.94-1.25-3.72-2.64-5.06-3.96c-1.39,1.46-3,2.78-4.78,3.96H743.46z"/>
	</g>
	<g>
	</g>
	<g>
	</g>
	<g>
	</g>
	<g>
	</g>
	<g>
	</g>
	<g>
	</g>
	<g>
	</g>
	<g>
	</g>
	<g>
	</g>
	<g>
	</g>
	<g>
	</g>
	<g>
	</g>
	<g>
	</g>
	<g>
	</g>
	<g>
	</g>
</g>
</svg>
